<svg width="120" height="120" viewBox="0 0 120 120" fill="none" xmlns="http://www.w3.org/2000/svg">
  <path d="M94 0H26C11.6406 0 0 11.6406 0 26V94C0 108.359 11.6406 120 26 120H94C108.359 120 120 108.359 120 94V26C120 11.6406 108.359 0 94 0Z" fill="#F0F2F8" />
  <path d="M81 59H73C70.7909 59 69 60.7909 69 63V71C69 73.2091 70.7909 75 73 75H81C83.2091 75 85 73.2091 85 71V63C85 60.7909 83.2091 59 81 59Z" fill="#2563EB" />
  <path d="M64 76H56C53.7909 76 52 77.7909 52 80V88C52 90.2091 53.7909 92 56 92H64C66.2091 92 68 90.2091 68 88V80C68 77.7909 66.2091 76 64 76Z" fill="#44BC80" />
  <path d="M98 42H90C87.7909 42 86 43.7909 86 46V54C86 56.2091 87.7909 58 90 58H98C100.209 58 102 56.2091 102 54V46C102 43.7909 100.209 42 98 42Z" fill="#5048E5" />
  <path d="M29 38L53 60L29 82" stroke="#1E2A3A" stroke-width="13" stroke-linecap="round" stroke-linejoin="round" />
</svg>
